<?xml version="1.0" standalone="no"?>
<!DOCTYPE svg PUBLIC "-//W3C//DTD SVG 20010904//EN"
 "http://www.w3.org/TR/2001/REC-SVG-20010904/DTD/svg10.dtd">
<svg version="1.0" xmlns="http://www.w3.org/2000/svg"
 width="512.000000pt" height="512.000000pt" viewBox="0 0 512.000000 512.000000"
 preserveAspectRatio="xMidYMid meet">

<g transform="translate(0.000000,512.000000) scale(0.100000,-0.100000)"
fill="#000000" stroke="none">
<path d="M0 2560 l0 -2560 2560 0 2560 0 0 2560 0 2560 -2560 0 -2560 0 0
-2560z m1955 2148 c3 -7 63 -351 135 -765 71 -414 135 -774 141 -800 16 -65
45 -120 69 -133 13 -7 20 -21 20 -40 l0 -30 -170 0 -170 0 0 30 c0 22 6 33 23
39 70 27 81 106 47 332 -12 79 -24 152 -26 162 -5 15 -22 17 -174 17 l-168 0
-22 -112 c-12 -62 -24 -156 -27 -208 -6 -112 8 -160 57 -188 22 -12 30 -24 30
-44 l0 -28 -160 0 c-157 0 -160 0 -160 21 0 12 15 39 34 60 23 25 43 64 60
117 14 44 96 412 182 819 87 406 162 744 167 751 5 7 31 12 59 12 30 0 50 -5
53 -12z m-1416 -65 c6 -27 63 -302 126 -612 63 -311 117 -566 119 -568 2 -3 8
15 13 39 6 24 68 301 139 616 l128 572 123 0 123 0 0 -27 c0 -19 -10 -36 -30
-53 -20 -16 -35 -40 -40 -65 -13 -57 -13 -1420 0 -1467 6 -22 23 -46 40 -58
22 -15 30 -30 30 -51 l0 -29 -150 0 -150 0 0 28 c0 20 9 35 30 50 18 13 33 37
39 60 9 39 23 1348 13 1322 -3 -8 -69 -294 -146 -635 l-141 -620 -42 -3 c-33
-2 -42 1 -47 15 -3 10 -62 293 -131 628 -69 336 -129 620 -133 633 -12 37 -2
-1287 10 -1332 6 -23 23 -51 44 -69 20 -18 34 -40 34 -54 0 -23 -1 -23 -135
-23 l-135 0 0 28 c0 20 9 35 30 50 17 13 33 38 39 59 15 52 15 1424 1 1475 -6
22 -23 46 -40 58 -22 15 -30 30 -30 51 l0 29 129 0 129 0 11 -47z m2141 21 c0
-16 -12 -37 -31 -55 -31 -29 -32 -32 -27 -97 6 -85 146 -513 160 -488 5 8 37
98 73 199 92 267 101 340 49 390 -14 12 -24 34 -24 50 l0 27 135 0 135 0 0
-26 c0 -15 -14 -43 -34 -66 -38 -44 -73 -126 -204 -486 l-89 -242 127 -368
c130 -377 151 -428 195 -480 14 -16 25 -42 25 -56 l0 -26 -160 0 -160 0 0 28
c0 20 9 35 30 50 28 21 30 27 30 89 0 56 -12 102 -82 310 -46 133 -85 243 -88
243 -3 0 -42 -109 -88 -242 -68 -201 -82 -254 -82 -305 0 -51 4 -67 25 -91 14
-17 25 -42 25 -56 l0 -26 -135 0 -135 0 0 28 c0 18 10 38 26 53 14 13 41 53
59 89 35 71 255 667 255 692 0 16 -161 489 -227 668 -19 52 -48 112 -64 132
-16 20 -29 48 -29 62 l0 26 155 0 155 0 0 -26z m900 -2 c0 -20 -9 -35 -30 -50
-17 -13 -33 -38 -39 -59 -15 -52 -15 -1424 0 -1476 6 -21 22 -46 39 -59 21
-15 30 -30 30 -50 l0 -28 -155 0 -155 0 0 30 c0 22 7 33 29 44 57 30 56 16 56
801 0 782 1 765 -55 799 -23 13 -30 25 -30 47 l0 29 155 0 155 0 0 -28z m448
-19 c6 -27 60 -295 122 -598 61 -302 114 -558 118 -569 5 -12 56 196 142 575
73 327 135 604 138 617 4 21 8 22 128 22 l124 0 0 -28 c0 -20 -9 -35 -30 -50
-17 -13 -33 -38 -39 -59 -7 -25 -11 -285 -11 -746 0 -767 -1 -756 54 -792 18
-12 26 -26 26 -46 l0 -29 -150 0 -150 0 0 28 c0 20 9 35 30 50 18 13 33 37 39
60 9 34 22 1337 14 1328 -3 -2 -68 -287 -147 -632 l-142 -629 -44 0 -44 0
-132 636 c-72 349 -133 642 -136 650 -10 27 4 -1316 13 -1353 6 -23 21 -47 39
-60 21 -15 30 -30 30 -50 l0 -28 -130 0 -130 0 0 27 c0 17 12 37 34 58 28 25
35 41 41 85 3 30 5 366 3 745 -3 633 -4 693 -20 722 -10 17 -27 34 -38 38 -15
5 -20 15 -20 41 l0 34 129 0 129 0 10 -47z m-3362 -2465 c19 -12 51 -47 72
-77 l37 -54 3 49 c4 60 20 84 39 58 19 -26 19 -462 0 -488 -21 -29 -33 -1 -46
106 -14 121 -44 200 -96 255 -38 40 -45 43 -93 43 -43 0 -57 -5 -87 -31 -40
-35 -55 -60 -79 -133 -42 -125 -40 -313 5 -416 31 -70 74 -107 196 -166 97
-46 118 -61 147 -101 70 -96 102 -258 93 -458 -14 -299 -126 -496 -282 -495
-59 1 -141 66 -188 148 l-24 43 -6 -56 c-3 -31 -11 -63 -18 -72 -12 -13 -14
-13 -26 3 -20 27 -19 493 1 520 24 32 35 6 46 -103 14 -154 65 -270 140 -321
29 -20 44 -23 94 -20 54 4 62 8 101 49 77 82 110 207 102 399 -7 205 -41 268
-181 335 -160 77 -212 129 -257 256 -21 57 -23 82 -23 244 -1 194 10 254 61
363 65 138 172 186 269 120z m984 -264 c0 -262 -6 -308 -36 -283 -11 9 -14 49
-14 205 l0 194 -200 0 -200 0 0 -340 0 -340 100 0 100 0 0 103 c0 106 8 134
33 124 22 -8 27 -63 27 -297 0 -234 -5 -289 -27 -297 -25 -10 -33 18 -33 125
l0 102 -100 0 -100 0 0 -375 0 -375 209 0 210 0 3 223 c2 177 6 228 17 241 14
17 16 17 28 0 10 -14 13 -86 13 -311 l0 -293 -310 0 c-296 0 -310 1 -320 19
-13 25 -13 77 0 102 8 14 21 19 55 19 l45 0 0 785 0 785 -39 0 c-23 0 -46 7
-55 16 -19 18 -22 94 -4 112 9 9 90 12 305 12 l293 0 0 -256z m603 242 c72
-30 144 -156 178 -311 19 -87 17 -294 -4 -380 -23 -92 -66 -178 -119 -239
l-43 -48 37 -75 c46 -96 76 -188 139 -439 49 -191 53 -204 75 -204 33 0 54
-26 54 -66 0 -57 -14 -74 -64 -74 l-43 0 -46 189 c-66 269 -112 413 -163 512
-66 128 -69 130 -167 127 l-82 -3 -3 -342 -2 -343 54 0 c66 0 86 -16 86 -70 0
-64 -14 -70 -154 -70 -81 0 -126 4 -134 12 -16 16 -16 100 0 116 7 7 31 12 55
12 l43 0 0 785 0 785 -36 0 c-59 0 -74 14 -74 68 0 27 5 53 12 60 18 18 358
17 401 -2z m607 -5 c15 -29 12 -87 -6 -105 -10 -11 -34 -16 -71 -16 l-55 0 6
-32 c3 -18 58 -357 121 -753 122 -764 126 -786 131 -770 5 15 244 1523 244
1540 0 11 -13 15 -54 15 -63 0 -81 15 -81 70 0 64 12 70 139 70 74 0 116 -4
124 -12 16 -16 16 -100 0 -116 -7 -7 -24 -12 -39 -12 -26 0 -26 0 -49 -147
-13 -82 -73 -465 -135 -853 l-111 -705 -40 0 -39 0 -137 850 c-76 468 -138
851 -138 853 0 1 -10 2 -22 2 -13 0 -29 4 -36 8 -18 12 -26 72 -13 105 l11 27
119 0 c109 0 121 -2 131 -19z m1190 -244 c0 -268 -5 -302 -37 -276 -10 9 -13
57 -13 205 l0 194 -195 0 -195 0 0 -340 0 -340 95 0 95 0 0 93 c0 105 6 137
26 137 28 0 34 -54 34 -300 0 -246 -6 -300 -34 -300 -20 0 -26 32 -26 138 l0
92 -95 0 -95 0 0 -375 0 -375 204 0 204 0 4 223 c2 177 6 228 17 241 14 17 16
17 28 0 10 -14 13 -86 13 -311 l0 -293 -304 0 c-341 0 -336 -1 -336 70 0 49
21 70 71 70 l39 0 0 785 0 785 -39 0 c-23 0 -46 7 -55 16 -18 18 -21 76 -6
105 10 18 24 19 305 19 l295 0 0 -263z m603 249 c71 -30 134 -132 173 -281 25
-96 26 -323 1 -415 -25 -93 -68 -178 -117 -233 l-42 -48 40 -87 c49 -107 76
-193 138 -439 48 -188 50 -193 74 -193 37 0 50 -18 50 -71 0 -56 -15 -71 -67
-67 l-38 3 -33 130 c-104 411 -144 530 -217 639 l-37 57 -87 -3 -86 -3 -3
-342 -2 -343 58 0 c32 0 63 -5 70 -12 7 -7 12 -33 12 -58 0 -25 -5 -51 -12
-58 -8 -8 -53 -12 -134 -12 -140 0 -154 6 -154 70 0 49 21 70 71 70 l39 0 0
785 0 785 -39 0 c-49 0 -71 21 -71 66 0 74 -1 74 201 74 131 0 188 -4 212 -14z"/>
<path d="M1787 4048 c-43 -216 -78 -399 -77 -405 0 -10 36 -13 145 -13 139 0
145 1 145 20 0 30 -120 752 -128 773 -4 11 -38 -140 -85 -375z"/>
<path d="M2000 1655 l0 -375 90 0 c53 0 104 6 123 13 38 17 98 81 127 136 73
144 61 394 -26 527 -43 66 -65 74 -198 74 l-116 0 0 -375z"/>
<path d="M4402 1658 l3 -373 101 0 c89 0 104 3 135 24 48 33 96 99 121 168 26
73 35 220 18 306 -16 82 -62 182 -101 218 -31 29 -32 29 -155 29 l-124 0 2
-372z"/>
</g>
</svg>
